<svg width="100mm" height="100mm" version="1.1" viewBox="0 0 100 100" xmlns="http://www.w3.org/2000/svg"><g stroke-linecap="round" stroke-linejoin="round"><circle cx="35.327" cy="84.287" r="9.895" fill="#dd648f" stroke="#b5285a" stroke-width="2"/><path d="m49.515 29.824c-11.454-29.672-33.065-20.586-33.065-20.586s8.8815 26.371 33.065 20.586z" fill="#12b33e" stroke="#074619" stroke-width="2"/><path d="m49.496 29.843c2.5268-30.455 25.865-28.005 25.865-28.005s-0.9992 26.71-25.865 28.005z" fill="#12b33e" stroke="#074619" stroke-width="1.9616"/><g fill="#dd648f" stroke="#b5285a" stroke-width="2"><circle cx="49.4" cy="88.84" r="9.895"/><circle cx="62.002" cy="82.464" r="9.895"/><circle cx="72.883" cy="72.756" r="9.895"/><circle cx="79.792" cy="58.638" r="9.895"/><circle cx="82.667" cy="44.307" r="9.895"/><circle cx="23.661" cy="73.847" r="9.895"/><circle cx="18.079" cy="60.337" r="9.895"/><circle cx="13.844" cy="46.003" r="9.895"/><circle cx="21.226" cy="35.983" r="9.895"/><circle cx="73.664" cy="34.494" r="9.895"/><circle cx="68.565" cy="48.255" r="9.895"/><circle cx="60.893" cy="61.773" r="9.895"/><circle cx="50.962" cy="71.531" r="9.895"/><circle cx="38.913" cy="70.519" r="9.895"/><circle cx="29.352" cy="54.945" r="9.895"/><circle cx="32.764" cy="40.169" r="9.895"/><circle cx="43.749" cy="55.598" r="9.895"/><circle cx="54.44" cy="46.386" r="9.895"/><circle cx="44.861" cy="37.166" r="9.895"/><circle cx="59.975" cy="35.861" r="9.895"/></g></g></svg>
