<svg width="100mm" height="100mm" version="1.1" viewBox="0 0 100 100" xmlns="http://www.w3.org/2000/svg"><g transform="translate(-7.4292 -103.03)"><rect x="7.4292" y="103.03" width="100" height="100" fill="#68452c"/><path d="m23.917 126.49s37.584-16.265 53.689-2.3943c16.105 13.871-11.446 27.34-10.466 39.461s14.548 23.416 29.545 31.387" fill="none" stroke="#362302" stroke-linecap="round" stroke-linejoin="round" stroke-opacity=".53726" stroke-width="8.5"/><rect transform="rotate(-10.139)" x="11.689" y="120.46" width="22.922" height="11.432" ry="4.041" fill="#40301d"/><g fill="none" stroke="#2e1d0b" stroke-linecap="round" stroke-linejoin="round" stroke-width="1.4"><path d="m29.275 119.91 2.9446 7.9916"/><path d="m65.189 114.71-1.177 8.4351"/><path d="m80.096 120.84-5.39 6.5942"/><path d="m86.579 136.16-8.4903-0.67204"/><path d="m77.151 152.57-7.2291-4.503"/><path d="m72.257 167.1-8.4092 1.3499"/><path d="m84.404 182.17-6.324 5.7047"/></g><ellipse cx="22.084" cy="125.07" rx=".65734" ry=".62" fill="#1f170e"/><path d="m22.038 130.3c0.30162-0.33553 1.7924-0.10423 1.8852-2.9088" fill="none" stroke="#1f170e" stroke-width=".26458px"/></g></svg>
