<svg width="100mm" height="100mm" version="1.1" viewBox="0 0 100 100" xmlns="http://www.w3.org/2000/svg"><g transform="translate(-7.4292 -103.03)"><rect x="7.4292" y="103.03" width="100" height="100" fill="#68452c"/><path d="m31.559 125.33s10.896 4.6091 15.544 3.5723c4.6478-1.0368 21.512-13.743 27.557-9.6261 6.0454 4.1168 21.352 11.335 21.576 18.083 0.22456 6.7478-9.5542 10.433-9.1117 19.23 0.44249 8.7972 8.6506 22.222 7.088 28.857-1.5626 6.6358-9.6761 8.3653-15.815 7.6308-6.1384-0.73451-15.536 5.8816-19.289 6.5833-3.7522 0.70163-3.5134-15.497-10.529-15.107-7.016 0.39001-9.8769 6.0904-14.867 6.5631-4.9901 0.47263-9.9609-6.7742-11.508-10.545-1.5475-3.7708 7.425-16.036 9.0119-19.304s1.5861-6.641-0.60394-9.8465c-2.19-3.2055-11.423-2.9011-14.098-4.1446-2.6752-1.2434-6.6169-6.4656-5.7525-9.7867 0.86432-3.3211 1.104-8.3637 5.7405-9.9452 4.6365-1.5815 15.057-2.2149 15.057-2.2149z" fill="#563924"/><path transform="matrix(.26458 0 0 .26458 7.4292 103.03)" d="m75.84 243.42c-11.123 18.133-23.757 40.488-19.998 49.648 5.8488 14.252 24.636 41.64 43.496 39.854 18.86-1.7863 29.672-23.331 56.189-24.805 26.517-1.474 25.615 59.748 39.797 57.096 14.181-2.6518 49.702-27.657 72.902-24.881 23.2 2.7761 53.866-3.7595 59.771-28.84 3.7654-15.99-7.4692-42.405-16.549-68.072 0 0-38.611 1.556-66.927 0.0197-13.318-0.7226-30.013 1.9458-46.53 1.8735-18.6-0.0814-49.025-2.7796-62.095-1.8649-24.676 1.7268-60.057-0.0283-60.057-0.0283z" fill="#262d40"/><path d="m31.559 125.33s10.896 4.6091 15.544 3.5723l1.7948 9.3257s1.0779 10.955 2.0998 10.911c1.1287-0.0496 5.4547-24.922 5.4547-24.922 6.571-3.5871 14.464-7.4894 18.208-4.9399 2.4294 1.6544 6.3545 3.8097 10.195 6.234 0.91124 0.57518 1.7757 12.181 2.8423 12.208 0.92795 0.0234 1.6087-9.2105 2.4238-8.5807 3.4404 2.6585 6.0237 5.4792 6.115 8.2222 0.22456 6.7478-9.5542 10.433-9.1117 19.23-4.7059-0.34565-5.6987 5.0451-16.459 2.5261-7.6552-1.7922-13.268 1.3386-20.141 0.0913-7.6991-1.3974-3.4411-0.60679-19.308 2.0614 1.587-3.268 1.5861-6.641-0.60394-9.8465-2.19-3.2055-11.423-2.9011-14.098-4.1446-2.6752-1.2434-6.6169-6.4656-5.7525-9.7867 0.86432-3.3211 1.104-8.3637 5.7405-9.9452 4.6365-1.5815 15.057-2.2149 15.057-2.2149z" fill="#4b3120"/><path transform="matrix(.26458 0 0 .26458 7.4292 103.03)" d="m213.5 92.695c-8.9083-0.08513-21.653 6.2983-32.736 12.338-5.1631 27.867-13.266 69.11-16.102 69.234-3.8624 0.16981-7.9375-41.236-7.9375-41.236l-3.3711-17.512c-11.287-1.2423-27.012-7.8926-27.012-7.8926s-40.731-5.7044-50.807-2.2676c-10.076 3.4368-23.987 20.318-25.865 27.535-1.8783 7.2174 8.485 25.112 14.299 27.814 5.8138 2.7022 55.557-3.345 60.316 3.6211 4.7593 6.9662 1.7632 33.122-1.6855 40.225 34.482-5.7984 29.589-7.0563 46.32-4.0195 14.936 2.7109 37.627-1.4592 54.264 2.4355 23.384 5.4743 46.359-7.5793 56.586-6.8281-0.96162-19.118 21.318-41.906 20.83-56.57-0.19838-5.961-39.514-17.892-46.99-23.67l-11.445-7.8828c-8.3468-5.2686-16.877-9.9516-22.156-13.547-1.7798-1.212-3.9896-1.7533-6.5078-1.7773z" fill="#342517"/></g></svg>
