<svg width="100mm" height="100mm" version="1.1" viewBox="0 0 100 100" xmlns="http://www.w3.org/2000/svg"><g transform="translate(-17.687 -1.0809)"><path d="m48.317 59.956c6.5802-8.3573 15.025-23.96 9.689-46.165 27.931 9.9765 35.157 40.332 35.157 40.332" fill="none" stroke="#795310" stroke-linecap="round" stroke-linejoin="round" stroke-width="3.7403"/><g stroke="#000" stroke-width="2.2442"><path d="m48.317 59.956c-18.093-18.532-28.313 15.536-20.081 25.371 8.2324 9.8355 14.976 9.6785 24.634 5.291 9.6586-4.3875 20.979-36.39-4.5536-30.662z" fill="#cf3030"/><path d="m93.163 54.124c18.129-18.498 28.284 15.589 20.033 25.409-8.251 9.8199-14.994 9.6502-24.644 5.2444-9.6502-4.4058-20.91-36.43 4.6116-30.653z" fill="#cf3030"/><path d="m18.975 44.901c11.318-41.016 39.031-31.109 39.031-31.109s-8.4472 36.315-39.031 31.109z" fill="#17e850" stroke-linecap="round" stroke-linejoin="round"/></g></g></svg>
