<svg width="100mm" height="100mm" version="1.1" viewBox="0 0 100 100" xmlns="http://www.w3.org/2000/svg"><g transform="translate(-42.831 -59.786)"><path d="m77.068 128.69s0.80768-67.534 16.451-67.534c15.644 0 17.118 67.52 17.118 67.52z" fill="#a5a434" stroke="#000" stroke-width="1.0583"/><g fill="#e2e140"><rect x="89.87" y="75.586" width="7.9658" height="4.926" ry="1.8709"/><rect x="80.23" y="75.586" width="7.9658" height="4.926" ry="1.8709"/><rect x="99.434" y="75.586" width="7.9658" height="4.926" ry="1.8709"/><rect x="90.436" y="68.665" width="6.8234" height="4.2196" ry="1.6026"/><rect x="82.178" y="68.665" width="6.8234" height="4.2196" ry="1.6026"/><rect x="98.628" y="68.665" width="6.8234" height="4.2196" ry="1.6026"/><rect x="89.361" y="83.356" width="8.9946" height="5.5622" ry="2.1125"/><rect x="78.476" y="83.356" width="8.9946" height="5.5622" ry="2.1125"/><rect x="100.16" y="83.356" width="8.9946" height="5.5622" ry="2.1125"/><rect x="88.911" y="91.635" width="9.9033" height="6.1241" ry="2.3259"/><rect x="76.926" y="91.635" width="9.9033" height="6.1241" ry="2.3259"/><rect x="100.8" y="91.635" width="9.9033" height="6.1241" ry="2.3259"/><rect x="88.272" y="100.73" width="11.192" height="6.9208" ry="2.6285"/><rect x="74.729" y="100.73" width="11.192" height="6.9208" ry="2.6285"/><rect x="101.71" y="100.73" width="11.192" height="6.9208" ry="2.6285"/></g><g fill="#fff" fill-opacity=".67602"><rect x="101.69" y="69.269" width="2.9322" height="2.0534" ry="1.0267"/><rect x="103.07" y="76.455" width="3.2434" height="2.0534" ry="1.0267"/><rect x="104.54" y="84.209" width="3.5812" height="2.2206" ry="1.1103"/><rect x="105.25" y="92.788" width="4.2907" height="2.6859" ry="1.343"/><rect x="106.25" y="102.17" width="5.0656" height="2.9589" ry="1.4795"/></g><g stroke="#000" stroke-width="1.0583"><path d="m62.276 87.74s62.316 32.414 40.621 59.091c-7.7507 18.729-28.482 0.26713-26.718-16.571 2.7112-25.882-13.903-42.52-13.903-42.52z" fill="#32b239"/><rect x="91.977" y="149.78" width="5.1709" height="9.0004" ry="1.7188" fill="#32b239" stroke-linecap="round" stroke-linejoin="round"/><path d="m125.99 87.74s-62.316 32.414-40.621 59.091c15.299 18.812 28.482 0.26713 26.718-16.571-2.7112-25.882 13.903-42.52 13.903-42.52z" fill="#43d44c"/></g></g></svg>
