<svg width="100mm" height="100mm" version="1.1" viewBox="0 0 100 100" xmlns="http://www.w3.org/2000/svg"><g stroke="#000"><g transform="translate(50 49.999)" fill="#fff" stroke-width="3.5"><path d="m18 6.6803c5.8119-10.253 16.765-12.509 17.708-12.621 0.98881-0.11758 0.97585-0.12373 1.7644 0.83216 0.78853 0.95589 5.309 7.7278 1.5477 25.193z" opacity=".995" style="paint-order:normal"/><path d="m-18 6.6803c-5.8119-10.253-16.765-12.509-17.708-12.621-0.98881-0.11758-0.97585-0.12373-1.7644 0.83216-0.78853 0.95589-5.309 7.7278-1.5477 25.193z" opacity=".995" style="paint-order:normal"/></g><g fill="#634f2f" stroke-linejoin="round" stroke-width=".81341"><path d="m-41.289 37.545-15.097-4.1708s0.62394-2.7681-1.8991-3.9143c-2.523-1.1462-4.0138-1.0817-4.9219 0.13992-0.90819 1.2216-1.0725 2.3877 1.2943 3.1421-2.3623-0.71289-3.8563-0.46937-4.3519 1.3244-0.49556 1.7938 1.0922 2.757 3.0791 3.2828-1.9218-0.4863-2.6716 1.3102-2.6089 2.9018 0.06269 1.5916 1.7449 1.7713 3.914 1.8489 2.1691 0.07762 3.5013-2.4472 3.5013-2.4472l15.337 4.2371c5.413 1.4954 7.2068-4.8381 1.7529-6.3448z" display="none"/><path d="m41.396 37.545 15.097-4.1708s-0.62394-2.7681 1.8991-3.9143c2.523-1.1462 4.0138-1.0817 4.9219 0.13992 0.90819 1.2216 1.0725 2.3877-1.2943 3.1421 2.3623-0.71289 3.8563-0.46937 4.3519 1.3244 0.49556 1.7938-1.0922 2.757-3.0791 3.2828 1.9218-0.4863 2.6716 1.3102 2.6089 2.9018-0.06269 1.5916-1.7449 1.7713-3.914 1.8489-2.1691 0.07762-3.5013-2.4472-3.5013-2.4472l-15.337 4.2371c-5.413 1.4954-7.2068-4.8381-1.7529-6.3448z" display="none"/><path d="m21.956 88.755 11.982 10.087s-1.7215 2.2557 0.0937 4.3496c1.8152 2.0939 3.197 2.657 4.5319 1.9254 1.3349-0.73158 1.9705-1.7229 0.13396-3.3956 1.8498 1.6331 3.3092 2.0348 4.5077 0.61108 1.1985-1.4237 0.157-2.9613-1.4295-4.2678 1.5439 1.2434 2.9746-0.07669 3.5814-1.5494 0.60674-1.4727-0.84724-2.3376-2.7864-3.3127-1.9391-0.97513-4.2029 0.76414-4.2029 0.76414l-12.173-10.247c-4.2962-3.6165-8.5678 1.3919-4.2391 5.0358z" display="none"/><path d="m-20.473 88.755-11.982 10.087s1.7215 2.2557-0.0937 4.3496c-1.8152 2.0939-3.197 2.657-4.5319 1.9254-1.3349-0.73158-1.9705-1.7229-0.13396-3.3956-1.8498 1.6331-3.3092 2.0348-4.5077 0.61108-1.1985-1.4237-0.157-2.9613 1.4295-4.2678-1.5439 1.2434-2.9746-0.07669-3.5814-1.5494-0.60674-1.4727 0.84724-2.3376 2.7864-3.3127 1.9391-0.97513 4.2029 0.76414 4.2029 0.76414l12.173-10.247c4.2962-3.6165 8.5678 1.3919 4.2391 5.0358z" display="none"/></g></g></svg>
