<svg width="100mm" height="107.76mm" version="1.1" viewBox="0 0 100 107.76" xmlns="http://www.w3.org/2000/svg"><g transform="translate(50 7.7571)"><g fill="#fff" stroke="#000" stroke-width="3.5"><path d="m18 6.6803c5.8119-10.253 16.765-12.509 17.708-12.621 0.98881-0.11758 0.97585-0.12373 1.7644 0.83216 0.78853 0.95589 5.309 7.7278 1.5477 25.193z" opacity=".995" style="paint-order:normal"/><path d="m-18 6.6803c-5.8119-10.253-16.765-12.509-17.708-12.621-0.98881-0.11758-0.97585-0.12373-1.7644 0.83216-0.78853 0.95589-5.309 7.7278-1.5477 25.193z" opacity=".995" style="paint-order:normal"/></g><circle cx="-1.4433e-15" cy="50" r="50" fill="#d7a020" style="paint-order:markers stroke fill"/><path d="m6.2182 30s3.7913-11 17.782-11c10.338 0 19.5 10.951 19.5 31 0.2444 15.709-13.498 40-23.5 40-10.002 0-8.2179-5-20-5s-10.008 5-20 5-23.5-19.929-23.5-40 5.4815-31 19.5-31c14.018 0 17.782 11 17.782 11z" fill="#fff"/><g transform="translate(.77155 -.29199)"><path d="m-6.9898 30.292h12.436l-6.2182 6.2182z"/><rect x="-1.5216" y="35.714" width="1.5" height="4.3469" rx="0" ry="0" style="paint-order:markers stroke fill"/></g><g transform="translate(.77156 -.29199)" fill="none" stroke="#000" stroke-linecap="round" stroke-linejoin="round" stroke-width="1.5"><path transform="scale(-1)" d="m0.77157-39.809a3.3974 3.3974 0 0 1 3.3974-3.3974 3.3974 3.3974 0 0 1 3.3974 3.3974" style="paint-order:markers stroke fill"/><path transform="scale(-1)" d="m-6.0232-39.809a3.3974 3.3974 0 0 1 3.3974-3.3974 3.3974 3.3974 0 0 1 3.3974 3.3974" style="paint-order:markers stroke fill"/></g><circle cx="-12" cy="13" r="3" style="paint-order:markers stroke fill"/><circle cx="12" cy="13" r="3" style="paint-order:markers stroke fill"/></g></svg>
