<svg width="100mm" height="100mm" version="1.1" viewBox="0 0 100 100" xmlns="http://www.w3.org/2000/svg" xmlns:xlink="http://www.w3.org/1999/xlink"><g transform="translate(-107.43 -203.03)"><g transform="matrix(-1 0 0 1 114.86 -.00019748)"><path transform="matrix(.26458 0 0 .26458 7.4292 3.0321)" d="m-377.95 755.91v311.4c0 39.979 29.125 66.547 70.146 66.547 0 0 38.481 8e-4 46.428 0 44.74 0 166.2-0.019 261.38 0v-377.95z" fill="#68452c"/><path transform="matrix(.26458 0 0 .26458 7.4292 3.0321)" d="m-377.95 756.82v310.49c0 39.979 29.126 66.546 70.147 66.546 0 0 195.72-0.021 307.81 9e-4v-46.484l-15.408 9.7589-11.898-18.955-17.525 15.723-11.773 8.5801-18.084-13.791-14.273 16.578-11.197-10.227-25.854 14.799-20.504-7.9765-10.504-13.205-22.254 9.1406-17.777-6.0976-18.902 13.773-38.838-14.668-19.846 10.92-9.9796-23.23-32.483-1.0123-2.6613-29.115-19.767-7.1742 2.4334-17.171-16.838-15.265 7.9746-20.504 13.207-10.504-9.1426-22.254 6.0976-17.777-13.771-18.904 14.666-38.836-10.92-19.846 13.105-23.143-24.424-32.719 24.512-14.629 1.1602-32.824z" fill-opacity=".25816"/></g></g></svg>
