<svg width="100mm" height="100mm" version="1.1" viewBox="0 0 100 100" xmlns="http://www.w3.org/2000/svg" xmlns:xlink="http://www.w3.org/1999/xlink"><defs><linearGradient id="linearGradient1523" x1="57.541" x2="57.541" y1="102.4" y2="3.7259" gradientTransform="matrix(1.0118 0 0 1.0118 -.5932 -.54152)" gradientUnits="userSpaceOnUse"><stop stop-color="#68452c" offset="0"/><stop stop-color="#b28b34" offset="1"/></linearGradient><linearGradient id="linearGradient1531" x1="58.212" x2="58.212" y1="76.386" y2="8.4615" gradientTransform="matrix(1.0005 0 0 .81095 -.029019 .55276)" gradientUnits="userSpaceOnUse"><stop stop-color="#214f2a" offset="0"/><stop stop-color="#148f2f" offset="1"/></linearGradient><linearGradient id="linearGradient1539" x1="57.999" x2="57.999" y1="31.755" y2="3.0045" gradientTransform="matrix(1 0 0 .604 0 1.2035)" gradientUnits="userSpaceOnUse"><stop stop-color="#1dcb3a" offset="0"/><stop stop-color="#149a2a" offset="1"/></linearGradient></defs><g transform="translate(-7.4292 -3.0321)"><g><rect x="7.4292" y="3.0321" width="100" height="100" fill="url(#linearGradient1523)"/><path d="m7.4292 3.0321h100v36.822c-9.7809 0-12.348-5.47-25.417-4.8103-13.07 0.65972-15.408 10.725-22.221 10.801-4.0464 0.04539-7.6422-7.3947-13.516-6.7592-5.8735 0.63554-6.7326-10.547-12.746-9.8205s-11.038 8.5323-15.246 9.6452c-4.2076 1.1129-5.0414 0.94337-10.854 0.94337z" fill="url(#linearGradient1531)"/><path d="m7.4509 3.0393v10.459l4.704-4.9981 2.8591 9.9757 1.651-6.3181 1.813 3.0139 1.9029-7.5592 5.2752 8.9113 1.0541-3.3828 0.91613 4.4243 2.5648-9.0443 4.7311 6.816 1.687-1.8549 1.1299 3.2031 0.80948-6.1867 1.3017 2.4882 3.3664-5.7765 1.0069 5.5243 7.5298-4.9787-3.4112 9.6935 6.9037-3.0682 0.13358-4.3856 3.7271 8.3172 1.6758-10.882 1.944 6.8182 2.9281-7.9363 0.9848 2.9474 4.2977-1.2872 1.3763 6.8605 3.033-3.2172 4.8113 5.4657 6.4694-8.2955 1.8246 3.888 5.707-3.0332 2.3641 7.1483 1.1796-4.256 2.9758 7.4798 2.8311-6.1847 1.536 2.9294 2.3625-3.2592v-10.459z" fill="url(#linearGradient1539)"/></g></g></svg>
