<svg width="100mm" height="100mm" version="1.1" viewBox="0 0 100 100" xmlns="http://www.w3.org/2000/svg" xmlns:xlink="http://www.w3.org/1999/xlink"><defs><linearGradient id="linearGradient1547" x1="57.999" x2="57.999" y1="31.755" y2="3.0045" gradientTransform="matrix(1.0004 0 0 .604 -100.02 1.1062)" gradientUnits="userSpaceOnUse"><stop stop-color="#1dcb3a" offset="0"/><stop stop-color="#149a2a" offset="1"/></linearGradient><linearGradient id="linearGradient1549" x1="58.212" x2="58.212" y1="70.725" y2="8.4615" gradientTransform="matrix(1.0005 0 0 .81173 -100.03 .46013)" gradientUnits="userSpaceOnUse"><stop stop-color="#214f29" offset="0"/><stop stop-color="#148f30" offset="1"/></linearGradient><linearGradient id="linearGradient1551" x1="57.541" x2="57.541" y1="102.68" y2="3.8765" gradientTransform="matrix(1.0118 0 0 1.0127 -100.59 -.63499)" gradientUnits="userSpaceOnUse"><stop stop-color="#67452c" offset="0"/><stop stop-color="#b08933" offset="1"/></linearGradient></defs><g transform="translate(92.571 -3.0321)"><g transform="matrix(1 0 0 .9991 -6.4908e-7 .092902)"><path d="m-71.309 2.9419h78.738v100.09h-100v-70.318z" fill="url(#linearGradient1551)"/><path d="m-92.571 103.03h12.299l-2.5816-4.3187 5.0152-3.1483-4.16-4.6369-2.2702-3.1153 3.6485-4.7844-4.3858-3.7765 2.7055-2.9626-3.9153-6.8406 2.11-5.4249 3.4943-2.779-2.4188-5.8881 1.6133-4.7037-3.6439-5.0015 3.8807-10.276-2.8893-5.2508 8.8115-27.183-0.38535 0.09739-16.912 28.195z" fill-opacity=".25816"/><path d="m-78.246 2.9419h85.675v36.857c-8.8311-3.8858-15.471-1.685-19.116-1.6226-4.0464 0.04542-12.333-7.1559-18.206-6.5197-5.8735 0.63615-1.9888 12.349-15.828 14.253-5.8526 0.80501-9.2421-3.6726-17.767 0.68166-9.3357 4.7686-11.689 20.339-29.082 11.503v-29.793z" fill="url(#linearGradient1549)"/><path d="m-79.539 2.9419c-12.89 0.045048-13.032 5.2942-13.032 27.072l5.4026-7.4656 3.0465 2.6263 2.1209-6.9607 2.1993-2.3658 3.3305 4.1106 2.1134-3.5321 1.0545-3.3828 0.91652 4.4243 2.5659-9.0443 4.7331 6.816 1.6878-1.8549 1.1304 3.2031 0.80983-6.1867 1.3022 2.4882 3.3679-5.7765 1.0073 5.5243 7.5331-4.9787-3.4127 9.6935 6.9067-3.0682 0.13364-4.3856 3.7287 8.3172 1.6766-10.882 1.9449 6.8182 2.9293-7.9363 0.98523 2.9474 4.2995-1.2872 1.3769 6.8605 3.0343-3.2172 4.8134 5.4657 6.4722-8.2955 1.8254 3.888 5.7094-3.0332 2.3652 7.1483 1.1801-4.256 2.9771 7.4798 2.8323-6.1847 1.5366 2.9294 2.3636-3.2592v-10.459z" fill="url(#linearGradient1547)"/></g></g></svg>
