<svg width="100mm" height="100mm" version="1.1" viewBox="0 0 100 100" xmlns="http://www.w3.org/2000/svg"><path d="m10.309 19.477s43.736-18.928 62.478-2.7863c18.741 16.141-31.994 28.05-30.572 46.821 1.4215 18.771 29.182 40.324 50.388 12.128" fill="none" stroke="#735c41" stroke-linecap="round" stroke-linejoin="round" stroke-width="9.8915"/><rect transform="rotate(-10.139)" x="18.836" y="11.376" width="26.674" height="13.303" ry="4.7026" fill="#40301d"/><g fill="none" stroke="#2e1d0b" stroke-linecap="round" stroke-linejoin="round" stroke-width="1.6292"><path d="m16.543 11.816 3.4266 9.2999"/><path d="m58.338 5.7736-1.3697 9.816"/><path d="m75.684 12.899-6.2724 7.6737"/><path d="m79.244 32.396-8.5511-5.0108"/><path d="m69.939 41.327-7.4421-6.5456"/><path d="m54.62 77.674-7.1635 6.8494"/><path d="m78.578 81.945 4.4054 8.8782"/></g><ellipse cx="8.1761" cy="17.822" rx=".76495" ry=".72149" fill="#1f170e"/><g fill="none"><path d="m8.1224 23.916c0.35099-0.39046 2.0858-0.12129 2.1938-3.385" stroke="#1f170e" stroke-width=".3079px"/><g stroke="#2e1d0b" stroke-linecap="round" stroke-linejoin="round" stroke-width="1.6292"><path d="m59.967 48.692-6.0748-7.8311"/><path d="m49.261 57.819-8.8271-4.5068"/><path d="m48.052 67.693-9.0012 4.1482"/><path d="m64.035 83.485-2.9214 9.4707"/></g></g><path d="m2.8068 16.162 3.1616-1.4747-2.6672-7.5512 5.1605-2.0772 2.104 7.6375 3.3927-1.1051 0.39198 1.1344-11.097 4.5334z"/></svg>
