<?xml version="1.0" encoding="UTF-8" standalone="no"?>
<svg
   xmlns:dc="http://purl.org/dc/elements/1.1/"
   xmlns:cc="http://creativecommons.org/ns#"
   xmlns:rdf="http://www.w3.org/1999/02/22-rdf-syntax-ns#"
   xmlns:svg="http://www.w3.org/2000/svg"
   xmlns="http://www.w3.org/2000/svg"
   xmlns:sodipodi="http://sodipodi.sourceforge.net/DTD/sodipodi-0.dtd"
   xmlns:inkscape="http://www.inkscape.org/namespaces/inkscape"
   width="210mm"
   height="297mm"
   viewBox="0 0 210 297"
   version="1.1"
   id="svg8"
   inkscape:version="1.0.1 (1.0.1+r74)"
   sodipodi:docname="spikey-white.svg"
   inkscape:export-filename="/home/lukas/gamejam/player/first-sketch.png"
   inkscape:export-xdpi="196.11517"
   inkscape:export-ydpi="196.11517">
  <defs
     id="defs2" />
  <sodipodi:namedview
     id="base"
     pagecolor="#ffffff"
     bordercolor="#666666"
     borderopacity="1.0"
     inkscape:pageopacity="0.0"
     inkscape:pageshadow="2"
     inkscape:zoom="0.9899495"
     inkscape:cx="-66.257701"
     inkscape:cy="165.73966"
     inkscape:document-units="mm"
     inkscape:current-layer="layer1"
     inkscape:document-rotation="0"
     showgrid="false"
     showguides="false"
     inkscape:window-width="1920"
     inkscape:window-height="972"
     inkscape:window-x="0"
     inkscape:window-y="27"
     inkscape:window-maximized="1" />
  <metadata
     id="metadata5">
    <rdf:RDF>
      <cc:Work
         rdf:about="">
        <dc:format>image/svg+xml</dc:format>
        <dc:type
           rdf:resource="http://purl.org/dc/dcmitype/StillImage" />
        <dc:title />
      </cc:Work>
    </rdf:RDF>
  </metadata>
  <g
     inkscape:label="Layer 1"
     inkscape:groupmode="layer"
     id="layer1"
     style="display:inline">
    <g
       id="g893"
       inkscape:label="Ears">
      <path
         style="opacity:0.995;fill:#ffffff;fill-opacity:1;stroke:#000000;stroke-width:3.5;stroke-linecap:butt;stroke-linejoin:miter;stroke-miterlimit:4;stroke-dasharray:none;stroke-opacity:1;paint-order:normal"
         d="m 18.000047,6.6803056 c 5.811858,-10.2526068 16.76473,-12.50923 17.708159,-12.621417 0.988811,-0.1175838 0.975848,-0.1237334 1.764381,0.8321558 0.788532,0.9558892 5.308993,7.7277946 1.547703,25.1930426 z"
         id="path886"
         sodipodi:nodetypes="cszcc"
         inkscape:label="Right" />
      <path
         style="opacity:0.995;fill:#ffffff;fill-opacity:1;stroke:#000000;stroke-width:3.5;stroke-linecap:butt;stroke-linejoin:miter;stroke-miterlimit:4;stroke-dasharray:none;stroke-opacity:1;paint-order:normal"
         d="m -17.999971,6.6803056 c -5.811858,-10.2526068 -16.76473,-12.50923 -17.708159,-12.621417 -0.988811,-0.1175838 -0.975848,-0.1237334 -1.764381,0.8321558 -0.788532,0.9558892 -5.308993,7.7277946 -1.547703,25.1930426 z"
         id="path853"
         sodipodi:nodetypes="cszcc"
         inkscape:label="Right" />
    </g>
    <circle
       style="display:inline;fill:#d7a020;fill-opacity:1;stroke:none;stroke-width:2.54684;stroke-linecap:round;stroke-linejoin:round;paint-order:markers stroke fill"
       id="path833"
       cx="-1.4432899e-15"
       cy="50"
       inkscape:label="OuterOrange"
       r="50" />
    <path
       style="fill:#ffffff;fill-opacity:1;stroke:none;stroke-width:0.264583px;stroke-linecap:butt;stroke-linejoin:miter;stroke-opacity:1"
       d="m 6.218215,30 c 0,0 3.791346,-11 17.781785,-11 4.774611,0 9.298546,2.336045 12.784823,6.825665 4.061886,5.230888 -6.503112,6.703998 -6.503112,6.703998 l 8.811161,4.675275 -11.58095,2.782643 14.271244,4.203988 -6.308316,3.922958 7.293199,6.89629 -18.225412,3.756353 11.798089,8.708985 -10.32355,4.004162 2.992888,8.428251 C 29.010064,79.908568 27.85132,90 20,90 12.850788,90 9.4988869,83.871991 5.1204075,82.459806 3.38226,81.899204 -0.34656084,87.335821 -0.34656084,87.335821 c 0,0 -2.95854666,-5.204583 -4.46855106,-4.858579 C -10.524139,83.785416 -12.098346,90 -20,90 c -8.625437,0 -6.789806,-8.513206 -6.789806,-8.513206 l 2.524132,-8.492019 -12.010551,-7.243855 13.74651,-6.791218 -20.053192,-3.670174 9.726941,-6.118994 -9.668662,-4.288879 14.559197,-4.191087 -13.474715,-4.997263 10.099595,-4.21626 c 0,0 -7.452629,-5.263735 -5.62682,-7.292927 C -33.89255,20.766783 -29.636287,19 -24,19 -9.9815359,19 -6.218215,30 -6.218215,30 Z"
       id="path854"
       inkscape:label="InnerWhite"
       sodipodi:nodetypes="cssccccccccccsscssccccccccccsscc" />
    <g
       id="g858"
       inkscape:label="Nose"
       transform="translate(0.7715542,-0.291994)">
      <path
         style="fill:#000000;fill-opacity:1;stroke:none;stroke-width:0.164523px;stroke-linecap:butt;stroke-linejoin:miter;stroke-opacity:1"
         d="m -6.9897692,30.291994 h 12.43643 l -6.21822005,6.218214 z"
         id="path835"
         sodipodi:nodetypes="cccc" />
      <rect
         style="fill:#000000;fill-opacity:1;stroke:none;stroke-width:2.93714;stroke-linecap:round;stroke-linejoin:round;paint-order:markers stroke fill"
         id="rect840"
         width="1.5"
         height="4.3469338"
         x="-1.5215573"
         y="35.714466"
         rx="0"
         ry="0" />
    </g>
    <g
       id="g862"
       inkscape:label="Mouth"
       transform="translate(0.77156115,-0.291994)">
      <path
         style="fill:none;fill-opacity:1;stroke:#000000;stroke-width:1.5;stroke-linecap:round;stroke-linejoin:round;stroke-miterlimit:4;stroke-dasharray:none;stroke-opacity:1;paint-order:markers stroke fill"
         id="path848"
         sodipodi:type="arc"
         sodipodi:cx="4.168942"
         sodipodi:cy="-39.809147"
         sodipodi:rx="3.3973768"
         sodipodi:ry="3.3973768"
         sodipodi:start="3.1415927"
         sodipodi:end="0"
         sodipodi:arc-type="arc"
         d="m 0.7715652,-39.809147 a 3.3973768,3.3973768 0 0 1 3.3973768,-3.397377 3.3973768,3.3973768 0 0 1 3.3973768,3.397377"
         sodipodi:open="true"
         transform="scale(-1)" />
      <path
         style="fill:none;fill-opacity:1;stroke:#000000;stroke-width:1.5;stroke-linecap:round;stroke-linejoin:round;stroke-miterlimit:4;stroke-dasharray:none;stroke-opacity:1;paint-order:markers stroke fill"
         id="path852"
         sodipodi:type="arc"
         sodipodi:cx="-2.6258197"
         sodipodi:cy="-39.809147"
         sodipodi:rx="3.3973768"
         sodipodi:ry="3.3973768"
         sodipodi:start="3.1415927"
         sodipodi:end="0"
         sodipodi:arc-type="arc"
         d="m -6.0231965,-39.809147 a 3.3973768,3.3973768 0 0 1 3.3973768,-3.397377 3.3973768,3.3973768 0 0 1 3.39737679,3.397377"
         sodipodi:open="true"
         transform="scale(-1)" />
    </g>
    <path
       style="display:none;fill:#634f2f;fill-opacity:1;stroke:#000000;stroke-width:0.813408;stroke-linecap:butt;stroke-linejoin:round;stroke-miterlimit:4;stroke-dasharray:none;stroke-opacity:1"
       d="M -41.289119,37.544779 -56.386108,33.37401 c 0,0 0.623945,-2.76809 -1.899068,-3.914295 -2.523016,-1.146203 -4.013751,-1.081688 -4.921942,0.139924 -0.90819,1.22161 -1.072489,2.387658 1.294304,3.142144 -2.362281,-0.712892 -3.856311,-0.46937 -4.351873,1.324423 -0.495561,1.79379 1.092231,2.756982 3.079052,3.282824 -1.921798,-0.486304 -2.671627,1.310184 -2.608936,2.901755 0.06269,1.591571 1.744882,1.771294 3.914017,1.848912 2.169135,0.07762 3.501333,-2.44724 3.501333,-2.44724 l 15.337251,4.237144 c 5.412985,1.495418 7.206767,-4.838096 1.752851,-6.344822 z"
       id="path909"
       sodipodi:nodetypes="cczzczczzccc"
       inkscape:label="Paw" />
    <circle
       style="display:inline;fill:#000000;fill-opacity:1;stroke:none;stroke-width:1.5;stroke-linecap:round;stroke-linejoin:round;stroke-miterlimit:4;stroke-dasharray:none;stroke-opacity:1;paint-order:markers stroke fill"
       id="path882"
       cx="-12"
       cy="13"
       r="3" />
    <circle
       style="fill:#000000;fill-opacity:1;stroke:none;stroke-width:1.5;stroke-linecap:round;stroke-linejoin:round;stroke-miterlimit:4;stroke-dasharray:none;stroke-opacity:1;paint-order:markers stroke fill"
       id="circle884"
       cx="12"
       cy="13"
       r="3" />
    <path
       style="display:none;fill:#634f2f;fill-opacity:1;stroke:#000000;stroke-width:0.813408;stroke-linecap:butt;stroke-linejoin:round;stroke-miterlimit:4;stroke-dasharray:none;stroke-opacity:1"
       d="M 41.395514,37.544779 56.492503,33.37401 c 0,0 -0.623945,-2.76809 1.899068,-3.914295 2.523016,-1.146203 4.013751,-1.081688 4.921942,0.139924 0.90819,1.22161 1.072489,2.387658 -1.294304,3.142144 2.362281,-0.712892 3.856311,-0.46937 4.351873,1.324423 0.495561,1.79379 -1.092231,2.756982 -3.079052,3.282824 1.921798,-0.486304 2.671627,1.310184 2.608936,2.901755 -0.06269,1.591571 -1.744882,1.771294 -3.914017,1.848912 -2.169135,0.07762 -3.501333,-2.44724 -3.501333,-2.44724 l -15.337251,4.237144 c -5.412985,1.495418 -7.206767,-4.838096 -1.752851,-6.344822 z"
       id="path912"
       sodipodi:nodetypes="cczzczczzccc"
       inkscape:label="Paw" />
    <path
       style="display:none;fill:#634f2f;fill-opacity:1;stroke:#000000;stroke-width:0.813408;stroke-linecap:butt;stroke-linejoin:round;stroke-miterlimit:4;stroke-dasharray:none;stroke-opacity:1"
       d="m 21.956085,88.754814 11.982274,10.0866 c 0,0 -1.721461,2.255706 0.0937,4.349646 1.815163,2.09393 3.19699,2.65697 4.531882,1.92539 1.334891,-0.73158 1.970491,-1.72288 0.133963,-3.39564 1.849773,1.63307 3.309245,2.03478 4.507713,0.61108 1.198467,-1.42371 0.157005,-2.961299 -1.429519,-4.267787 1.543913,1.243435 2.974608,-0.07669 3.581351,-1.549403 0.606745,-1.472715 -0.847243,-2.337579 -2.786391,-3.312707 -1.939148,-0.97513 -4.202904,0.764145 -4.202904,0.764145 L 26.195187,83.719015 c -4.296213,-3.616524 -8.5678,1.391928 -4.239102,5.035799 z"
       id="path914"
       sodipodi:nodetypes="cczzczczzccc"
       inkscape:label="Paw" />
    <path
       style="display:none;fill:#634f2f;fill-opacity:1;stroke:#000000;stroke-width:0.813408;stroke-linecap:butt;stroke-linejoin:round;stroke-miterlimit:4;stroke-dasharray:none;stroke-opacity:1"
       d="m -20.472839,88.754814 -11.982274,10.0866 c 0,0 1.721461,2.255706 -0.0937,4.349646 -1.815163,2.09393 -3.19699,2.65697 -4.531882,1.92539 -1.334891,-0.73158 -1.970491,-1.72288 -0.133963,-3.39564 -1.849773,1.63307 -3.309245,2.03478 -4.507713,0.61108 -1.198467,-1.42371 -0.157005,-2.961299 1.429519,-4.267787 -1.543913,1.243435 -2.974608,-0.07669 -3.581351,-1.549403 -0.606745,-1.472715 0.847243,-2.337579 2.786391,-3.312707 1.939148,-0.97513 4.202904,0.764145 4.202904,0.764145 l 12.172967,-10.247123 c 4.296213,-3.616524 8.5678,1.391928 4.239102,5.035799 z"
       id="path916"
       sodipodi:nodetypes="cczzczczzccc"
       inkscape:label="Paw" />
  </g>
</svg>
