<?xml version="1.0" encoding="UTF-8" standalone="no"?>
<svg
   xmlns:dc="http://purl.org/dc/elements/1.1/"
   xmlns:cc="http://creativecommons.org/ns#"
   xmlns:rdf="http://www.w3.org/1999/02/22-rdf-syntax-ns#"
   xmlns:svg="http://www.w3.org/2000/svg"
   xmlns="http://www.w3.org/2000/svg"
   xmlns:sodipodi="http://sodipodi.sourceforge.net/DTD/sodipodi-0.dtd"
   xmlns:inkscape="http://www.inkscape.org/namespaces/inkscape"
   width="100mm"
   height="100mm"
   viewBox="0 0 100 100"
   version="1.1"
   id="svg924"
   inkscape:version="1.0.1 (1.0.1+r74)"
   sodipodi:docname="block-variation2.svg"
   inkscape:export-filename="/home/lukas/gamejam/world/grass2.png"
   inkscape:export-xdpi="128.01601"
   inkscape:export-ydpi="128.01601">
  <defs
     id="defs918" />
  <sodipodi:namedview
     id="base"
     pagecolor="#ffffff"
     bordercolor="#666666"
     borderopacity="1.0"
     inkscape:pageopacity="0.0"
     inkscape:pageshadow="2"
     inkscape:zoom="1.4"
     inkscape:cx="68.424203"
     inkscape:cy="269.79759"
     inkscape:document-units="mm"
     inkscape:current-layer="layer1"
     inkscape:document-rotation="0"
     showgrid="false"
     fit-margin-top="0"
     fit-margin-left="0"
     fit-margin-right="0"
     fit-margin-bottom="0"
     inkscape:window-width="1920"
     inkscape:window-height="972"
     inkscape:window-x="0"
     inkscape:window-y="27"
     inkscape:window-maximized="1" />
  <metadata
     id="metadata921">
    <rdf:RDF>
      <cc:Work
         rdf:about="">
        <dc:format>image/svg+xml</dc:format>
        <dc:type
           rdf:resource="http://purl.org/dc/dcmitype/StillImage" />
        <dc:title />
      </cc:Work>
    </rdf:RDF>
  </metadata>
  <g
     inkscape:label="Layer 1"
     inkscape:groupmode="layer"
     id="layer1"
     transform="translate(-7.4291682,-103.03214)">
    <rect
       style="opacity:1;fill:#68452c;fill-opacity:1;stroke:none;stroke-width:1.01175;stroke-linejoin:miter;stroke-miterlimit:4;stroke-dasharray:none"
       id="rect1595"
       width="100"
       height="100"
       x="7.4291682"
       y="103.03214"
       inkscape:label="CenterCenter" />
    <path
       style="fill:#563924;fill-opacity:1;stroke:none;stroke-width:0.264583px;stroke-linecap:butt;stroke-linejoin:miter;stroke-opacity:1"
       d="m 31.558647,125.33197 c 0,0 10.895827,4.60911 15.543649,3.57234 4.647821,-1.03678 21.511524,-13.74286 27.556965,-9.62606 6.045438,4.1168 21.351776,11.33522 21.576339,18.08303 0.224562,6.74781 -9.554186,10.43273 -9.111697,19.22988 0.442492,8.79715 8.650623,22.22164 7.087999,28.85748 -1.562623,6.63585 -9.676121,8.36526 -15.814521,7.63076 -6.138399,-0.73451 -15.536484,5.88165 -19.288656,6.58327 -3.75217,0.70163 -3.513421,-15.49677 -10.529396,-15.10676 -7.015974,0.39001 -9.876946,6.09045 -14.86702,6.56308 -4.990075,0.47263 -9.960863,-6.77421 -11.508353,-10.54505 -1.54749,-3.77083 7.42498,-16.03606 9.011931,-19.3041 1.586951,-3.26804 1.586063,-6.64105 -0.603945,-9.84653 -2.190008,-3.20549 -11.422718,-2.90113 -14.097942,-4.14455 -2.675224,-1.24341 -6.6168669,-6.46559 -5.752544,-9.78667 0.864323,-3.32106 1.10403,-8.36373 5.74049,-9.9452 4.63646,-1.58148 15.056701,-2.21492 15.056701,-2.21492 z"
       id="path842" />
    <path
       id="path844"
       style="fill:#262d40;fill-opacity:1;stroke:none;stroke-width:0.999999px;stroke-linecap:butt;stroke-linejoin:miter;stroke-opacity:1"
       d="m 75.839844,243.42383 c -11.123195,18.13285 -23.757476,40.48769 -19.998047,49.64844 5.848781,14.25199 24.635968,41.63983 43.496094,39.85351 18.860119,-1.78632 29.672389,-23.33063 56.189449,-24.80469 26.51707,-1.47405 25.61545,59.74754 39.79688,57.09571 14.18144,-2.6518 49.70209,-27.65696 72.90234,-24.88086 23.20025,2.77606 53.86551,-3.75947 59.77149,-28.83985 3.76535,-15.98995 -7.46921,-42.40533 -16.54883,-68.07226 0,0 -38.61106,1.55603 -66.92689,0.0197 -13.31796,-0.7226 -30.01341,1.94584 -46.5305,1.87354 -18.6005,-0.0814 -49.02545,-2.77957 -62.09529,-1.86494 -24.67574,1.72683 -60.056696,-0.0283 -60.056696,-0.0283 z"
       transform="matrix(0.26458333,0,0,0.26458333,7.4291682,103.03214)"
       sodipodi:nodetypes="csssssscsssc" />
    <path
       style="fill:#4b3120;fill-opacity:1;stroke:none;stroke-width:0.264583px;stroke-linecap:butt;stroke-linejoin:miter;stroke-opacity:1"
       d="m 31.558647,125.33197 c 0,0 10.895827,4.60911 15.543649,3.57234 l 1.794817,9.32566 c 0,0 1.077916,10.95546 2.099842,10.91053 1.128657,-0.0496 5.454685,-24.92231 5.454685,-24.92231 6.571031,-3.58711 14.463786,-7.4894 18.207621,-4.93994 2.429446,1.65439 6.354476,3.80969 10.195285,6.23404 0.911235,0.57518 1.775658,12.1806 2.842281,12.20754 0.927951,0.0234 1.608744,-9.21052 2.423784,-8.58071 3.440365,2.65852 6.023706,5.47922 6.114989,8.22216 0.224563,6.74781 -9.554186,10.43273 -9.111697,19.22988 -4.705876,-0.34565 -5.698683,5.04508 -16.458801,2.52607 -7.655247,-1.79215 -13.26819,1.33865 -20.14095,0.0913 -7.699132,-1.39738 -3.441123,-0.60679 -19.308265,2.06135 1.586951,-3.26804 1.586063,-6.64105 -0.603945,-9.84653 -2.190008,-3.20549 -11.422718,-2.90113 -14.097942,-4.14455 -2.675224,-1.24341 -6.6168669,-6.46559 -5.752544,-9.78667 0.864323,-3.32106 1.10403,-8.36373 5.74049,-9.9452 4.63646,-1.58148 15.056701,-2.21492 15.056701,-2.21492 z"
       id="path850"
       sodipodi:nodetypes="cccscssssscsscscsccc" />
    <path
       id="path852"
       style="fill:#342517;fill-opacity:1;stroke:none;stroke-width:0.574991px;stroke-linecap:butt;stroke-linejoin:miter;stroke-opacity:1"
       d="m 213.50391,92.695312 c -8.90827,-0.08513 -21.65343,6.298262 -32.73633,12.337888 -5.16308,27.8673 -13.2657,69.10975 -16.10156,69.23438 -3.8624,0.16981 -7.9375,-41.23633 -7.9375,-41.23633 l -3.3711,-17.51172 c -11.28719,-1.24229 -27.01172,-7.89258 -27.01172,-7.89258 0,0 -40.730716,-5.70445 -50.806638,-2.26757 -10.075921,3.43683 -23.986892,20.31784 -25.865234,27.53515 -1.878342,7.21735 8.485049,25.11228 14.298828,27.81445 5.813779,2.70218 55.557094,-3.34502 60.316404,3.6211 4.75931,6.96616 1.76321,33.1225 -1.68554,40.22461 34.48236,-5.7984 29.58861,-7.05631 46.32031,-4.01953 14.93583,2.71086 37.62734,-1.45915 54.26367,2.43554 23.38381,5.47431 46.35916,-7.5793 56.58594,-6.82812 -0.96162,-19.11791 21.3181,-41.90605 20.83008,-56.57031 -0.19838,-5.96096 -39.51366,-17.89246 -46.99024,-23.66993 l -11.44531,-7.88281 c -8.34682,-5.26858 -16.8766,-9.95156 -22.15625,-13.546874 -1.77977,-1.211973 -3.98959,-1.753278 -6.50781,-1.777344 z"
       transform="matrix(0.26458333,0,0,0.26458333,7.4291682,103.03214)" />
  </g>
</svg>
